<svg width="43" height="45" viewBox="0 0 43 45" fill="none" xmlns="http://www.w3.org/2000/svg">
<g filter="url(#filter0_d_20_191)">
<rect x="15" y="6" width="20" height="20" rx="6" fill="#FBC42C"/>
<path d="M22 19.5C22 20.05 22.45 20.5 23 20.5H27C27.55 20.5 28 20.05 28 19.5V14.5C28 13.95 27.55 13.5 27 13.5H23C22.45 13.5 22 13.95 22 14.5V19.5ZM28 12H26.75L26.395 11.645C26.305 11.555 26.175 11.5 26.045 11.5H23.955C23.825 11.5 23.695 11.555 23.605 11.645L23.25 12H22C21.725 12 21.5 12.225 21.5 12.5C21.5 12.775 21.725 13 22 13H28C28.275 13 28.5 12.775 28.5 12.5C28.5 12.225 28.275 12 28 12Z" fill="white"/>
</g>
<defs>
<filter id="filter0_d_20_191" x="0" y="-5" width="50" height="50" filterUnits="userSpaceOnUse" color-interpolation-filters="sRGB">
<feFlood flood-opacity="0" result="BackgroundImageFix"/>
<feColorMatrix in="SourceAlpha" type="matrix" values="0 0 0 0 0 0 0 0 0 0 0 0 0 0 0 0 0 0 127 0" result="hardAlpha"/>
<feOffset dy="4"/>
<feGaussianBlur stdDeviation="7.5"/>
<feComposite in2="hardAlpha" operator="out"/>
<feColorMatrix type="matrix" values="0 0 0 0 0 0 0 0 0 0 0 0 0 0 0 0 0 0 0.25 0"/>
<feBlend mode="normal" in2="BackgroundImageFix" result="effect1_dropShadow_20_191"/>
<feBlend mode="normal" in="SourceGraphic" in2="effect1_dropShadow_20_191" result="shape"/>
</filter>
</defs>
</svg>
