<svg width="50" height="50" viewBox="0 0 50 50" fill="none" xmlns="http://www.w3.org/2000/svg">
<g filter="url(#filter0_d_20_183)">
<rect x="15" y="11" width="20" height="20" rx="6" fill="#FBC42C"/>
<path d="M24.794 25.12H29.588M27.191 16.331C27.4029 16.119 27.6904 16 27.99 16C28.1384 16 28.2854 16.0292 28.4225 16.086C28.5595 16.1428 28.6841 16.226 28.789 16.331C28.894 16.4359 28.9772 16.5605 29.034 16.6975C29.0908 16.8346 29.12 16.9816 29.12 17.13C29.12 17.2784 29.0908 17.4253 29.034 17.5624C28.9772 17.6995 28.894 17.824 28.789 17.929L22.1307 24.5873L20 25.12L20.5327 22.9893L27.191 16.331Z" stroke="white" stroke-linecap="round" stroke-linejoin="round"/>
</g>
<defs>
<filter id="filter0_d_20_183" x="0" y="0" width="50" height="50" filterUnits="userSpaceOnUse" color-interpolation-filters="sRGB">
<feFlood flood-opacity="0" result="BackgroundImageFix"/>
<feColorMatrix in="SourceAlpha" type="matrix" values="0 0 0 0 0 0 0 0 0 0 0 0 0 0 0 0 0 0 127 0" result="hardAlpha"/>
<feOffset dy="4"/>
<feGaussianBlur stdDeviation="7.5"/>
<feComposite in2="hardAlpha" operator="out"/>
<feColorMatrix type="matrix" values="0 0 0 0 0 0 0 0 0 0 0 0 0 0 0 0 0 0 0.25 0"/>
<feBlend mode="normal" in2="BackgroundImageFix" result="effect1_dropShadow_20_183"/>
<feBlend mode="normal" in="SourceGraphic" in2="effect1_dropShadow_20_183" result="shape"/>
</filter>
</defs>
</svg>
