<svg width="22" height="22" viewBox="0 0 22 22" fill="none" xmlns="http://www.w3.org/2000/svg">
<path d="M14.025 19.25C14.2438 19.25 14.4536 19.1631 14.6084 19.0084C14.7631 18.8536 14.85 18.6438 14.85 18.425C14.85 18.2062 14.7631 17.9964 14.6084 17.8416C14.4536 17.6869 14.2438 17.6 14.025 17.6H7.15C6.56652 17.6 6.00694 17.3682 5.59436 16.9556C5.18178 16.5431 4.95 15.9835 4.95 15.4V6.6C4.95 6.01652 5.18178 5.45694 5.59436 5.04436C6.00694 4.63179 6.56652 4.4 7.15 4.4H14.025C14.2438 4.4 14.4536 4.31308 14.6084 4.15836C14.7631 4.00365 14.85 3.7938 14.85 3.575C14.85 3.3562 14.7631 3.14635 14.6084 2.99164C14.4536 2.83692 14.2438 2.75 14.025 2.75H7.15C6.12892 2.75 5.14965 3.15562 4.42764 3.87764C3.70562 4.59965 3.3 5.57892 3.3 6.6V15.4C3.3 16.4211 3.70562 17.4003 4.42764 18.1224C5.14965 18.8444 6.12892 19.25 7.15 19.25H14.025ZM15.1151 6.8189C15.1947 6.74536 15.288 6.68821 15.3897 6.65073C15.4913 6.61325 15.5994 6.59617 15.7077 6.60046C15.8159 6.60475 15.9223 6.63033 16.0207 6.67574C16.1191 6.72114 16.2076 6.78549 16.2811 6.8651L19.5811 10.4401C19.722 10.5925 19.8002 10.7925 19.8002 11C19.8002 11.2075 19.722 11.4075 19.5811 11.5599L16.2811 15.1349C16.1325 15.2955 15.9261 15.3905 15.7074 15.3989C15.4888 15.4074 15.2757 15.3286 15.1151 15.18C14.9545 15.0314 14.8595 14.825 14.8511 14.6063C14.8426 14.3877 14.9214 14.1746 15.07 14.014L17.0918 11.8239H8.525C8.3062 11.8239 8.09635 11.737 7.94164 11.5823C7.78692 11.4275 7.7 11.2177 7.7 10.9989C7.7 10.7801 7.78692 10.5703 7.94164 10.4155C8.09635 10.2608 8.3062 10.1739 8.525 10.1739H17.0907L15.0689 7.9838C14.9954 7.90421 14.9382 7.81092 14.9007 7.70924C14.8632 7.60757 14.8462 7.49951 14.8505 7.39123C14.8547 7.28295 14.8803 7.17658 14.9257 7.07819C14.9711 6.9798 15.0355 6.89132 15.1151 6.8178V6.8189Z" fill="#333333"/>
</svg>
