<svg width="20" height="20" viewBox="0 0 20 20" fill="none" xmlns="http://www.w3.org/2000/svg">
<path d="M16.85 5.71668C15.1833 5.21668 13.4667 5.68335 12.3583 6.79168L10 8.88335L8.73333 10H8.74167L6.5 11.9917C5.825 12.6667 4.875 12.95 3.9 12.7583C3.38354 12.6499 2.90833 12.3975 2.52932 12.0303C2.15032 11.6631 1.88302 11.1961 1.75833 10.6833C1.656 10.2675 1.64956 9.83374 1.73952 9.415C1.82948 8.99625 2.01347 8.60345 2.27759 8.26628C2.5417 7.92911 2.87902 7.65641 3.26404 7.4688C3.64906 7.28119 4.0717 7.18358 4.5 7.18335C5.25833 7.18335 5.96667 7.47501 6.53333 8.04168L6.925 8.38335C7.24167 8.66668 7.71667 8.66668 8.03333 8.38335C8.40833 8.05002 8.40833 7.46668 8.03333 7.13335L7.68333 6.83335C7.26602 6.41446 6.76983 6.08242 6.22344 5.85642C5.67705 5.63043 5.09128 5.51496 4.5 5.51668C2.01667 5.51668 0 7.53335 0 10C0 12.4667 2.01667 14.4833 4.5 14.4833C5.7 14.4833 6.83333 14.0167 7.64167 13.2083L10 11.125L10.0083 11.1333L11.2667 10H11.2583L13.5 8.00835C14.175 7.33335 15.125 7.05001 16.1 7.24168C17.1417 7.45001 18 8.28335 18.2417 9.31668C18.344 9.73257 18.3504 10.1663 18.2605 10.585C18.1705 11.0038 17.9865 11.3966 17.7224 11.7338C17.4583 12.0709 17.121 12.3436 16.736 12.5312C16.3509 12.7188 15.9283 12.8165 15.5 12.8167C14.75 12.8167 14.0333 12.525 13.4667 11.9583L13.0667 11.6083C12.9145 11.4716 12.7171 11.396 12.5125 11.396C12.3079 11.396 12.1105 11.4716 11.9583 11.6083C11.5833 11.9417 11.5833 12.525 11.9583 12.8583L12.3083 13.1667C12.7268 13.5835 13.2234 13.9136 13.7696 14.1381C14.3159 14.3626 14.9011 14.4771 15.4917 14.475C18.2167 14.475 20.375 12.0583 19.9333 9.26668C19.6833 7.60835 18.4583 6.19168 16.85 5.71668Z" fill="white"/>
</svg>
