<svg width="178" height="55" viewBox="0 0 178 55" fill="none" xmlns="http://www.w3.org/2000/svg">
<rect width="55" height="55" rx="10" fill="#FFC72C"/>
<g clip-path="url(#clip0_8_39)">
<path d="M11.7855 36.0195L26.604 45V27.684L11.7855 18.702V36.0195ZM42.2145 36.0195V18.702L27.396 27.684V45L42.2145 36.0195ZM41.8455 17.9985L27 9L12.1545 17.9985L27 26.997L41.8455 17.9985Z" fill="#333333"/>
</g>
<path d="M76.571 17.168V19.121H72.541V38H70.309V19.121H66.279V17.168H76.571ZM79.9689 32.978V33.908C79.9689 34.7347 80.1652 35.3443 80.5579 35.737C80.9506 36.1297 81.6946 36.326 82.7899 36.326C83.8852 36.326 84.9186 35.923 85.8899 35.117V29.32L82.3559 30.312C81.4259 30.5807 80.7956 30.9113 80.4649 31.304C80.1342 31.6967 79.9689 32.2547 79.9689 32.978ZM82.7589 20.206C86.2722 20.206 88.0289 21.7043 88.0289 24.701V38H85.9209V36.729C84.8669 37.659 83.6062 38.124 82.1389 38.124C79.2662 38.124 77.8299 36.7083 77.8299 33.877V32.885C77.8299 30.7357 79.0802 29.3097 81.5809 28.607L85.9209 27.398V24.701C85.9002 23.8537 85.6626 23.2337 85.2079 22.841C84.7532 22.4483 83.8336 22.252 82.4489 22.252C81.0849 22.252 79.8242 22.4587 78.6669 22.872V20.795C79.8449 20.4023 81.2089 20.206 82.7589 20.206ZM90.8748 24.515C90.8748 23.0683 91.2882 21.9937 92.1148 21.291C92.9415 20.5677 94.2952 20.206 96.1758 20.206C97.3332 20.206 98.4802 20.3817 99.6168 20.733V22.779C98.5835 22.407 97.4468 22.221 96.2068 22.221C94.9668 22.221 94.1298 22.407 93.6958 22.779C93.2618 23.1303 93.0448 23.7297 93.0448 24.577V25.383C93.0448 26.0443 93.1688 26.5507 93.4168 26.902C93.6855 27.2533 94.1712 27.584 94.8738 27.894L97.5398 29.196C99.3998 30.1053 100.33 31.366 100.33 32.978V33.815C100.33 36.7083 98.4595 38.155 94.7188 38.155C93.3135 38.155 92.0735 37.9897 90.9988 37.659V35.613C92.0735 35.985 93.2618 36.171 94.5638 36.171C95.8865 36.171 96.8062 35.9747 97.3228 35.582C97.8602 35.1687 98.1288 34.5693 98.1288 33.784V33.164C98.1288 32.5853 97.9945 32.141 97.7258 31.831C97.4572 31.5003 96.9302 31.149 96.1448 30.777L93.4788 29.506C91.7428 28.6793 90.8748 27.367 90.8748 25.569V24.515ZM103.347 15.68H105.517V38H103.347V15.68ZM110.539 20.361H112.864L108.989 28.855L113.174 38H110.725L106.633 28.855L110.539 20.361ZM124.779 21.57C126.205 20.7227 127.62 20.299 129.026 20.299C130.431 20.299 131.506 20.6607 132.25 21.384C132.994 22.0867 133.366 23.089 133.366 24.391V38H131.134V24.608C131.134 23.0993 130.379 22.345 128.871 22.345C127.755 22.345 126.639 22.686 125.523 23.368C125.626 23.678 125.678 24.0913 125.678 24.608V38H123.477V24.608C123.477 23.0993 122.712 22.345 121.183 22.345C120.211 22.345 119.157 22.6137 118.021 23.151V38H115.82V20.361H117.928V21.167C119.312 20.5883 120.521 20.299 121.555 20.299C122.96 20.299 124.035 20.7227 124.779 21.57ZM138.487 32.978V33.908C138.487 34.7347 138.684 35.3443 139.076 35.737C139.469 36.1297 140.213 36.326 141.308 36.326C142.404 36.326 143.437 35.923 144.408 35.117V29.32L140.874 30.312C139.944 30.5807 139.314 30.9113 138.983 31.304C138.653 31.6967 138.487 32.2547 138.487 32.978ZM141.277 20.206C144.791 20.206 146.547 21.7043 146.547 24.701V38H144.439V36.729C143.385 37.659 142.125 38.124 140.657 38.124C137.785 38.124 136.348 36.7083 136.348 33.877V32.885C136.348 30.7357 137.599 29.3097 140.099 28.607L144.439 27.398V24.701C144.419 23.8537 144.181 23.2337 143.726 22.841C143.272 22.4483 142.352 22.252 140.967 22.252C139.603 22.252 138.343 22.4587 137.185 22.872V20.795C138.363 20.4023 139.727 20.206 141.277 20.206ZM152.772 21.167C154.157 20.5883 155.418 20.299 156.554 20.299C157.712 20.299 158.662 20.6607 159.406 21.384C160.15 22.0867 160.522 23.089 160.522 24.391V38H158.321V24.608C158.321 23.0993 157.557 22.345 156.027 22.345C155.056 22.345 154.002 22.6137 152.865 23.151V38H150.664V20.361H152.772V21.167ZM164.837 38.186C163.948 38.186 163.504 37.721 163.504 36.791C163.504 35.8403 163.948 35.365 164.837 35.365C165.746 35.365 166.201 35.8403 166.201 36.791C166.201 37.721 165.746 38.186 164.837 38.186Z" fill="black"/>
<defs>
<clipPath id="clip0_8_39">
<rect width="36" height="36" fill="white" transform="translate(9 9)"/>
</clipPath>
</defs>
</svg>
