<svg width="75" height="23" viewBox="0 0 75 23" fill="none" xmlns="http://www.w3.org/2000/svg">
<path d="M18.7202 0H4.16004C1.86252 0 0 1.87226 0 4.18182V18.8182C0 21.1277 1.86252 23 4.16004 23H18.7202C21.0177 23 22.8802 21.1277 22.8802 18.8182V4.18182C22.8802 1.87226 21.0177 0 18.7202 0Z" fill="#FFC72C"/>
<path d="M4.90282 15.0627L11.0674 18.8182V11.577L4.90282 7.82084V15.0627ZM17.5614 15.0627V7.82084L11.3969 11.577V18.8182L17.5614 15.0627ZM17.4079 7.52665L11.2321 3.76364L5.05632 7.52665L11.2321 11.2897L17.4079 7.52665Z" fill="white"/>
<path d="M31.8539 7.17935V7.99606H30.1774V15.8909H29.2489V7.99606H27.5724V7.17935H31.8539ZM33.2674 13.7908V14.1797C33.2674 14.5254 33.3491 14.7804 33.5124 14.9446C33.6758 15.1088 33.9853 15.1909 34.441 15.1909C34.8966 15.1909 35.3265 15.0224 35.7306 14.6853V12.2611L34.2604 12.6759C33.8735 12.7883 33.6113 12.9266 33.4738 13.0908C33.3362 13.255 33.2674 13.4883 33.2674 13.7908ZM34.4281 8.44979C35.8896 8.44979 36.6204 9.07635 36.6204 10.3295V15.8909H35.7435V15.3594C35.305 15.7483 34.7805 15.9428 34.1701 15.9428C32.9751 15.9428 32.3776 15.3508 32.3776 14.1668V13.7519C32.3776 12.8531 32.8977 12.2568 33.938 11.9629L35.7435 11.4574V10.3295C35.7349 9.97519 35.636 9.71592 35.4469 9.5517C35.2577 9.38748 34.8751 9.30539 34.2991 9.30539C33.7317 9.30539 33.2072 9.39183 32.7258 9.56466V8.6961C33.2158 8.53188 33.7833 8.44979 34.4281 8.44979ZM37.8043 10.2517C37.8043 9.64675 37.9763 9.19737 38.3202 8.90352C38.6641 8.60105 39.2272 8.44979 40.0096 8.44979C40.491 8.44979 40.9682 8.52326 41.441 8.67017V9.52577C41.0112 9.37021 40.5383 9.29243 40.0225 9.29243C39.5066 9.29243 39.1584 9.37021 38.9779 9.52577C38.7973 9.67268 38.707 9.92334 38.707 10.2777V10.6147C38.707 10.8913 38.7586 11.103 38.8618 11.2499C38.9736 11.3968 39.1756 11.5351 39.4679 11.6648L40.577 12.2092C41.3508 12.5895 41.7377 13.1167 41.7377 13.7908V14.1408C41.7377 15.3508 40.9596 15.9557 39.4034 15.9557C38.8188 15.9557 38.303 15.8866 37.8559 15.7483V14.8927C38.303 15.0483 38.7973 15.1261 39.339 15.1261C39.8892 15.1261 40.2718 15.044 40.4867 14.8798C40.7103 14.7069 40.822 14.4563 40.822 14.1279V13.8686C40.822 13.6266 40.7661 13.4408 40.6544 13.3112C40.5426 13.1729 40.3234 13.026 39.9967 12.8704L38.8876 12.3389C38.1654 11.9932 37.8043 11.4444 37.8043 10.6925V10.2517ZM42.9928 6.5571H43.8955V15.8909H42.9928V6.5571ZM45.9847 8.51461H46.9519L45.3399 12.0666L47.0809 15.8909H46.0621L44.3598 12.0666L45.9847 8.51461ZM51.9086 9.02019C52.5018 8.66586 53.0905 8.48868 53.6754 8.48868C54.2599 8.48868 54.7071 8.63994 55.0166 8.94241C55.3261 9.23626 55.4808 9.65541 55.4808 10.1999V15.8909H54.5523V10.2906C54.5523 9.65972 54.2382 9.34428 53.6109 9.34428C53.1466 9.34428 52.6824 9.48688 52.2181 9.77208C52.261 9.90172 52.2826 10.0746 52.2826 10.2906V15.8909H51.367V10.2906C51.367 9.65972 51.0487 9.34428 50.4127 9.34428C50.0083 9.34428 49.5698 9.45665 49.0973 9.68133V15.8909H48.1816V8.51461H49.0586V8.85166C49.6343 8.60966 50.1373 8.48868 50.5674 8.48868C51.1519 8.48868 51.5991 8.66586 51.9086 9.02019ZM57.6112 13.7908V14.1797C57.6112 14.5254 57.6932 14.7804 57.8562 14.9446C58.0197 15.1088 58.3292 15.1909 58.7847 15.1909C59.2407 15.1909 59.6704 15.0224 60.0744 14.6853V12.2611L58.6042 12.6759C58.2173 12.7883 57.9552 12.9266 57.8175 13.0908C57.6803 13.255 57.6112 13.4883 57.6112 13.7908ZM58.7718 8.44979C60.2337 8.44979 60.9642 9.07635 60.9642 10.3295V15.8909H60.0873V15.3594C59.6488 15.7483 59.1246 15.9428 58.5139 15.9428C57.3192 15.9428 56.7214 15.3508 56.7214 14.1668V13.7519C56.7214 12.8531 57.2418 12.2568 58.2818 11.9629L60.0873 11.4574V10.3295C60.0789 9.97519 59.9799 9.71592 59.7906 9.5517C59.6018 9.38748 59.2191 9.30539 58.6429 9.30539C58.0755 9.30539 57.5513 9.39183 57.0696 9.56466V8.6961C57.5596 8.53188 58.127 8.44979 58.7718 8.44979ZM63.5538 8.85166C64.13 8.60966 64.6546 8.48868 65.1272 8.48868C65.6089 8.48868 66.0041 8.63994 66.3136 8.94241C66.6231 9.23626 66.7779 9.65541 66.7779 10.1999V15.8909H65.8622V10.2906C65.8622 9.65972 65.5444 9.34428 64.9079 9.34428C64.504 9.34428 64.0655 9.45665 63.5925 9.68133V15.8909H62.6769V8.51461H63.5538V8.85166ZM68.5729 15.9687C68.2031 15.9687 68.0184 15.7742 68.0184 15.3853C68.0184 14.9878 68.2031 14.789 68.5729 14.789C68.9511 14.789 69.1403 14.9878 69.1403 15.3853C69.1403 15.7742 68.9511 15.9687 68.5729 15.9687Z" fill="black"/>
</svg>
