<svg width="14" height="14" viewBox="0 0 14 14" fill="none" xmlns="http://www.w3.org/2000/svg">
<g clip-path="url(#clip0_8_58)">
<path d="M6.99999 13.3311C7.24496 13.3255 7.48005 13.2334 7.66366 13.0711C7.84728 12.9089 7.96759 12.6869 8.00332 12.4445H5.95776C5.9945 12.6935 6.12045 12.9207 6.31216 13.0838C6.50387 13.2469 6.74831 13.3348 6.99999 13.3311Z" fill="#333333"/>
<path d="M12.775 10.9394L12.6428 10.8228C12.2677 10.4886 11.9393 10.1053 11.6667 9.68333C11.3688 9.10099 11.1904 8.46503 11.1417 7.81278V5.89167C11.1401 5.65831 11.1193 5.42549 11.0794 5.19555C10.4207 5.06016 9.82899 4.70128 9.40449 4.17969C8.97998 3.6581 8.74877 3.00584 8.74998 2.33333V2.08833C8.34396 1.88852 7.90772 1.75712 7.45887 1.69944V1.20944C7.45887 1.07175 7.40418 0.9397 7.30681 0.842338C7.20945 0.744975 7.0774 0.690277 6.93971 0.690277C6.80201 0.690277 6.66996 0.744975 6.5726 0.842338C6.47524 0.9397 6.42054 1.07175 6.42054 1.20944V1.71889C5.41554 1.86066 4.49576 2.36123 3.83102 3.1282C3.16627 3.89516 2.80143 4.87672 2.80387 5.89167V7.81278C2.75517 8.46503 2.57668 9.10099 2.27887 9.68333C2.01088 10.1042 1.68784 10.4875 1.31832 10.8228L1.1861 10.9394V12.0361H12.775V10.9394Z" fill="#333333"/>
<path d="M11.6667 4.27778C12.7406 4.27778 13.6111 3.40722 13.6111 2.33333C13.6111 1.25944 12.7406 0.388885 11.6667 0.388885C10.5928 0.388885 9.72223 1.25944 9.72223 2.33333C9.72223 3.40722 10.5928 4.27778 11.6667 4.27778Z" fill="#FFC72C"/>
</g>
<defs>
<clipPath id="clip0_8_58">
<rect width="14" height="14" fill="white"/>
</clipPath>
</defs>
</svg>
