<svg width="21" height="21" viewBox="0 0 21 21" fill="none" xmlns="http://www.w3.org/2000/svg">
<path d="M9.94219 12.9527C10.8227 12.3678 11.4914 11.515 11.8496 10.5205C12.2077 9.52593 12.2361 8.44252 11.9306 7.43058C11.6251 6.41864 11.002 5.53193 10.1534 4.90168C9.30476 4.27143 8.2758 3.93112 7.21875 3.93112C6.1617 3.93112 5.13274 4.27143 4.28414 4.90168C3.43553 5.53193 2.81238 6.41864 2.50689 7.43058C2.20141 8.44252 2.22983 9.52593 2.58794 10.5205C2.94605 11.515 3.61484 12.3678 4.49531 12.9527C2.9933 13.5051 1.69647 14.5042 0.779297 15.8156C0.719518 15.8849 0.674882 15.9659 0.648256 16.0534C0.62163 16.1409 0.613601 16.2331 0.624685 16.3239C0.63577 16.4147 0.665722 16.5022 0.712619 16.5808C0.759517 16.6593 0.822323 16.7272 0.897007 16.7801C0.97169 16.8329 1.0566 16.8696 1.14628 16.8877C1.23597 16.9058 1.32845 16.9049 1.41778 16.8852C1.50712 16.8654 1.59134 16.8272 1.66503 16.773C1.73872 16.7187 1.80027 16.6497 1.8457 16.5703C2.45214 15.7088 3.25684 15.0057 4.19196 14.5204C5.12708 14.0351 6.16519 13.7817 7.21875 13.7817C8.27231 13.7817 9.31042 14.0351 10.2455 14.5204C11.1807 15.0057 11.9854 15.7088 12.5918 16.5703C12.6372 16.6497 12.6988 16.7187 12.7725 16.773C12.8462 16.8272 12.9304 16.8654 13.0197 16.8852C13.1091 16.9049 13.2015 16.9058 13.2912 16.8877C13.3809 16.8696 13.4658 16.8329 13.5405 16.7801C13.6152 16.7272 13.678 16.6593 13.7249 16.5808C13.7718 16.5022 13.8017 16.4147 13.8128 16.3239C13.8239 16.2331 13.8159 16.1409 13.7892 16.0534C13.7626 15.9659 13.718 15.8849 13.6582 15.8156C12.741 14.5042 11.4442 13.5051 9.94219 12.9527ZM3.60938 8.85936C3.60938 8.14549 3.82106 7.44766 4.21766 6.8541C4.61427 6.26054 5.17798 5.79792 5.8375 5.52473C6.49703 5.25155 7.22275 5.18007 7.92291 5.31934C8.62306 5.45861 9.26618 5.80237 9.77097 6.30715C10.2757 6.81193 10.6195 7.45506 10.7588 8.15521C10.898 8.85536 10.8266 9.58108 10.5534 10.2406C10.2802 10.9001 9.81757 11.4638 9.22401 11.8604C8.63045 12.257 7.93262 12.4687 7.21875 12.4687C6.26149 12.4687 5.34343 12.0885 4.66654 11.4116C3.98965 10.7347 3.60938 9.81663 3.60938 8.85936ZM20.1879 16.7262C20.1181 16.7764 20.039 16.8122 19.9553 16.8316C19.8715 16.851 19.7847 16.8535 19.7 16.8389C19.6152 16.8244 19.5342 16.7932 19.4617 16.7471C19.3891 16.701 19.3264 16.6409 19.2773 16.5703C18.6705 15.7092 17.8657 15.0064 16.9307 14.521C15.9957 14.0357 14.9578 13.782 13.9043 13.7812C13.7302 13.7812 13.5633 13.7121 13.4403 13.589C13.3172 13.466 13.248 13.299 13.248 13.125C13.248 12.9509 13.3172 12.784 13.4403 12.6609C13.5633 12.5379 13.7302 12.4687 13.9043 12.4687C14.8616 12.4687 15.7796 12.0885 16.4565 11.4116C17.1334 10.7347 17.5137 9.81663 17.5137 8.85936C17.5137 7.9021 17.1334 6.98404 16.4565 6.30715C15.7796 5.63026 14.8616 5.24999 13.9043 5.24999C13.5747 5.25218 13.2466 5.29628 12.9281 5.38124C12.8452 5.40503 12.7584 5.41223 12.6726 5.40242C12.5869 5.39261 12.5039 5.36599 12.4285 5.32409C12.3531 5.28218 12.2866 5.22581 12.233 5.15819C12.1794 5.09058 12.1396 5.01306 12.116 4.93006C12.0702 4.76259 12.0918 4.58384 12.1761 4.43206C12.2604 4.28028 12.4008 4.16754 12.5672 4.11796C13.0033 4.00054 13.4527 3.93988 13.9043 3.93749C14.9624 3.93368 15.9935 4.27155 16.8442 4.90085C17.6949 5.53014 18.3197 6.41723 18.6257 7.43016C18.9317 8.4431 18.9025 9.52775 18.5426 10.5228C18.1826 11.5178 17.511 12.37 16.6277 12.9527C18.1307 13.5073 19.4296 14.5058 20.352 15.8156C20.4504 15.9583 20.4884 16.1341 20.4577 16.3047C20.4269 16.4753 20.33 16.6268 20.1879 16.7262Z" fill="#333333"/>
</svg>
