<svg width="12" height="12" viewBox="0 0 12 12" fill="none" xmlns="http://www.w3.org/2000/svg">
<path d="M8.80626 7.75847C9.53248 6.76749 9.85775 5.53884 9.71699 4.31833C9.57623 3.09783 8.97982 1.97548 8.04708 1.17582C7.11435 0.376163 5.91407 -0.0418252 4.68638 0.00547963C3.4587 0.0527845 2.29415 0.561894 1.42571 1.43095C0.557272 2.30001 0.0489957 3.46493 0.00256937 4.69265C-0.043857 5.92037 0.37499 7.12034 1.17531 8.0525C1.97564 8.98467 3.09842 9.58027 4.31902 9.72016C5.53963 9.86005 6.76804 9.5339 7.75851 8.80697H7.75776C7.78026 8.83697 7.80426 8.86547 7.83126 8.89322L10.7188 11.7807C10.8594 11.9215 11.0502 12.0006 11.2491 12.0006C11.4481 12.0007 11.6389 11.9217 11.7796 11.7811C11.9204 11.6405 11.9995 11.4497 11.9995 11.2507C11.9996 11.0518 11.9206 10.861 11.78 10.7202L8.89251 7.83272C8.86569 7.80558 8.83686 7.78051 8.80626 7.75772V7.75847ZM8.99976 4.87547C8.99976 5.41717 8.89306 5.95357 8.68576 6.45404C8.47846 6.95451 8.17462 7.40925 7.79157 7.79229C7.40853 8.17533 6.9538 8.47917 6.45333 8.68647C5.95286 8.89378 5.41646 9.00047 4.87476 9.00047C4.33306 9.00047 3.79666 8.89378 3.29619 8.68647C2.79572 8.47917 2.34098 8.17533 1.95794 7.79229C1.5749 7.40925 1.27106 6.95451 1.06375 6.45404C0.856454 5.95357 0.749758 5.41717 0.749758 4.87547C0.749758 3.78145 1.18436 2.73224 1.95794 1.95866C2.73153 1.18507 3.78074 0.750472 4.87476 0.750472C5.96878 0.750472 7.01799 1.18507 7.79157 1.95866C8.56516 2.73224 8.99976 3.78145 8.99976 4.87547V4.87547Z" fill="#333333"/>
</svg>
